<?xml version="1.0" encoding="utf-8"?>
<!-- Generator: Adobe Illustrator 25.1.0, SVG Export Plug-In . SVG Version: 6.00 Build 0)  -->
<svg version="1.1" id="Layer_1" xmlns="http://www.w3.org/2000/svg" xmlns:xlink="http://www.w3.org/1999/xlink" x="0px" y="0px"
	 viewBox="0 0 236 40" style="enable-background:new 0 0 236 40;" xml:space="preserve">
<style type="text/css">
	.st0{fill:#222222;}
	.st1{fill:#E9B949;}
</style>
<g>
	<g>
		<path class="st0" d="M42.4,19.4c1.2,0.2,4.4,1.2,4.4,4.8c0,4.3-3.3,5.9-9.2,5.9h-8v-21h8c5.7,0,8.4,1.8,8.4,5.6
			C46.1,17.7,43.6,19,42.4,19.4L42.4,19.4z M37.7,17.9c2,0,3.3-0.9,3.3-2.5c0-1.8-1.2-2.6-3.3-2.6h-2.5v5.1H37.7z M37.7,26.5
			c2.4,0,3.7-0.7,3.7-2.5c0-1.8-1.2-2.6-3.7-2.6h-2.5v5.1H37.7z"/>
		<path class="st0" d="M63.6,14.7c5.7,0,8.7,3,8.7,7.9c0,5-3.1,7.8-8.7,7.8c-5.7,0-8.7-2.9-8.7-7.8C55,17.7,58,14.7,63.6,14.7z
			 M63.6,26.9c2.2,0,3.4-1.6,3.4-4.3c0-2.8-1.2-4.2-3.4-4.2c-2.2,0-3.5,1.5-3.5,4.2C60.2,25.3,61.4,26.9,63.6,26.9z"/>
		<path class="st0" d="M81.2,15.1h5.1v2.8c0.8-1.8,2.5-3.2,4.6-3.2c1.4,0,2.3,0.3,2.6,0.4v5c-0.8-0.4-2.6-0.9-4.1-0.9
			c-1.4,0-2.6,0.8-3,1.4v9.5h-5.2V15.1z"/>
		<path class="st0" d="M118.2,29.5c-0.8,0.6-2.3,1-3.4,1c-2,0-3-1.3-3.3-1.9c-1.3,1.2-3.3,1.9-5.2,1.9c-3.4,0-5.7-1.8-5.7-4.8
			c0-3.6,2.9-4.9,8.5-4.9h1.9V20c0-1.3-1.1-1.7-2.4-1.7c-2.3,0-4.6,0.4-6.8,1.4v-4c1.6-0.5,4.2-1.1,6.9-1.1c4.2,0,7.2,1.2,7.2,5.2
			v5.1c0,0.7,0.2,1.2,0.9,1.2c0.7,0,1.3-0.2,1.5-0.4V29.5z M109.3,23.1c-2.7,0-3.7,0.7-3.7,2.1c0,1.2,0.7,1.9,2.5,1.9
			c1.4,0,2.5-0.6,2.8-0.9v-3.1H109.3z"/>
	</g>
	<g>
		<path class="st1" d="M135.8,9.1h5.7l7.8,21h-5.6l-1.7-4.6h-6.9l-1.6,4.6h-5.6L135.8,9.1z M141.2,22.2l-2.6-7.5l-2.6,7.5H141.2z"/>
		<path class="st1" d="M157.2,15.1h5.1v2.8c0.8-1.8,2.5-3.2,4.6-3.2c1.4,0,2.3,0.3,2.6,0.4v5c-0.8-0.4-2.6-0.9-4.1-0.9
			c-1.4,0-2.6,0.8-3,1.4v9.5h-5.2V15.1z"/>
		<path class="st1" d="M177.8,8.8c1.7,0,3.4,0,5.1,0c0,7.1,0,14.2,0.1,21.3h-5.2V8.8z"/>
		<path class="st1" d="M192.9,10c0-1.6,1.2-2.7,2.8-2.7c1.7,0,2.9,1.1,2.9,2.7c0,1.8-1.2,2.7-2.9,2.7C194,12.7,192.9,11.7,192.9,10z
			 M193.1,15.1h5.2v15.1h-5.2V15.1z"/>
	</g>
</g>
</svg>
